<svg width="800" height="520" viewBox="0 0 800 520" fill="none" xmlns="http://www.w3.org/2000/svg">
  <defs>
    <linearGradient id="bg" x1="120" y1="70" x2="700" y2="470" gradientUnits="userSpaceOnUse">
      <stop stop-color="#EAF2FF"/>
      <stop offset="1" stop-color="#F6FBFF"/>
    </linearGradient>
    <linearGradient id="cell" x1="0" y1="0" x2="1" y2="1">
      <stop stop-color="#4568DC"/>
      <stop offset="1" stop-color="#3FB8AF"/>
    </linearGradient>
  </defs>
  <rect x="20" y="20" width="760" height="480" rx="28" fill="url(#bg)"/>
  <g opacity="0.9">
    <circle cx="210" cy="170" r="54" fill="url(#cell)"/>
    <circle cx="320" cy="120" r="36" fill="#8EA6FF"/>
    <circle cx="390" cy="220" r="42" fill="#61D2C4"/>
    <circle cx="520" cy="165" r="58" fill="#6F88FF"/>
    <circle cx="610" cy="285" r="46" fill="#4CB9AF"/>
    <circle cx="450" cy="330" r="66" fill="#B9C8FF"/>
    <circle cx="280" cy="310" r="44" fill="#8BE0D4"/>
  </g>
  <g stroke="#5B6FAF" stroke-width="3" opacity="0.55">
    <path d="M210 170L320 120L390 220L450 330L610 285"/>
    <path d="M210 170L280 310L450 330L520 165"/>
    <path d="M320 120L520 165L610 285"/>
  </g>
  <rect x="80" y="390" width="300" height="62" rx="12" fill="white" fill-opacity="0.9"/>
  <text x="104" y="427" font-family="Inter, Arial, sans-serif" font-size="26" fill="#2C3E66">Single-cell landscapes</text>
</svg>
