<svg width="800" height="520" viewBox="0 0 800 520" fill="none" xmlns="http://www.w3.org/2000/svg">
  <defs>
    <linearGradient id="bg3" x1="30" y1="40" x2="770" y2="500" gradientUnits="userSpaceOnUse">
      <stop stop-color="#EEF1FF"/>
      <stop offset="1" stop-color="#E8FFF7"/>
    </linearGradient>
    <linearGradient id="node" x1="0" y1="0" x2="1" y2="1">
      <stop stop-color="#6B7CFF"/>
      <stop offset="1" stop-color="#2EC6A8"/>
    </linearGradient>
  </defs>
  <rect x="20" y="20" width="760" height="480" rx="28" fill="url(#bg3)"/>
  <g stroke="#768CC2" stroke-width="3" opacity="0.55">
    <path d="M150 150L300 100L470 140L640 95"/>
    <path d="M150 150L255 250L420 225L560 280L690 235"/>
    <path d="M255 250L210 365L390 390L560 280"/>
    <path d="M470 140L420 225L500 360L690 235"/>
    <path d="M390 390L500 360L620 420"/>
  </g>
  <g fill="url(#node)">
    <circle cx="150" cy="150" r="22"/>
    <circle cx="300" cy="100" r="20"/>
    <circle cx="470" cy="140" r="24"/>
    <circle cx="640" cy="95" r="20"/>
    <circle cx="255" cy="250" r="24"/>
    <circle cx="420" cy="225" r="22"/>
    <circle cx="560" cy="280" r="25"/>
    <circle cx="690" cy="235" r="18"/>
    <circle cx="210" cy="365" r="20"/>
    <circle cx="390" cy="390" r="22"/>
    <circle cx="500" cy="360" r="23"/>
    <circle cx="620" cy="420" r="19"/>
  </g>
  <rect x="90" y="432" width="360" height="46" rx="12" fill="white" fill-opacity="0.85"/>
  <text x="110" y="462" font-family="Inter, Arial, sans-serif" font-size="24" fill="#344F81">Interpretable multi-omics networks</text>
</svg>
