<svg width="800" height="520" viewBox="0 0 800 520" fill="none" xmlns="http://www.w3.org/2000/svg">
  <defs>
    <linearGradient id="bg2" x1="70" y1="60" x2="760" y2="500" gradientUnits="userSpaceOnUse">
      <stop stop-color="#F3F7FF"/>
      <stop offset="1" stop-color="#EAF9F5"/>
    </linearGradient>
    <linearGradient id="nn" x1="160" y1="95" x2="640" y2="420" gradientUnits="userSpaceOnUse">
      <stop stop-color="#4C6FFF"/>
      <stop offset="1" stop-color="#20B486"/>
    </linearGradient>
  </defs>
  <rect x="20" y="20" width="760" height="480" rx="28" fill="url(#bg2)"/>
  <rect x="130" y="100" width="540" height="320" rx="20" fill="white" fill-opacity="0.9"/>
  <g fill="url(#nn)">
    <circle cx="210" cy="170" r="16"/>
    <circle cx="210" cy="260" r="16"/>
    <circle cx="210" cy="350" r="16"/>
    <circle cx="360" cy="140" r="16"/>
    <circle cx="360" cy="220" r="16"/>
    <circle cx="360" cy="300" r="16"/>
    <circle cx="360" cy="380" r="16"/>
    <circle cx="520" cy="180" r="16"/>
    <circle cx="520" cy="270" r="16"/>
    <circle cx="520" cy="360" r="16"/>
    <circle cx="620" cy="265" r="18"/>
  </g>
  <g stroke="#5D78BE" stroke-width="2.5" opacity="0.55">
    <path d="M210 170L360 140L520 180L620 265"/>
    <path d="M210 170L360 220L520 270L620 265"/>
    <path d="M210 260L360 220L520 180"/>
    <path d="M210 260L360 300L520 270L620 265"/>
    <path d="M210 350L360 300L520 360L620 265"/>
    <path d="M210 350L360 380L520 360"/>
  </g>
  <rect x="158" y="394" width="260" height="42" rx="10" fill="#F0F5FF"/>
  <text x="176" y="422" font-family="Inter, Arial, sans-serif" font-size="24" fill="#324A7A">Clinical AI modeling</text>
</svg>
